<?xml version="1.0" standalone="no"?>
<!DOCTYPE svg PUBLIC "-//W3C//DTD SVG 20010904//EN"
 "http://www.w3.org/TR/2001/REC-SVG-20010904/DTD/svg10.dtd">
<svg version="1.0" xmlns="http://www.w3.org/2000/svg"
 width="300.000000pt" height="403.000000pt" viewBox="0 0 300.000000 403.000000"
 preserveAspectRatio="xMidYMid meet">
<metadata>
Created by potrace 1.10, written by Peter Selinger 2001-2011
</metadata>
<g transform="translate(0.000000,403.000000) scale(0.100000,-0.100000)"
fill="#FFFFFF" stroke="none">
<path d="M1395 3113 l-50 -18 -15 -73 c-13 -66 -16 -73 -35 -68 -11 4 -52 9
-90 12 -59 6 -73 4 -85 -11 -24 -28 13 -84 77 -115 49 -23 52 -27 46 -55 -3
-16 -11 -59 -17 -95 l-11 -65 -90 -13 c-146 -20 -158 -26 -212 -91 -26 -32
-56 -72 -65 -87 -10 -16 -28 -42 -40 -57 -20 -25 -23 -39 -21 -110 0 -45 6
-94 11 -108 11 -27 78 -73 123 -84 19 -5 30 -18 41 -53 9 -26 22 -60 28 -77
13 -34 5 -61 -32 -108 -16 -19 -19 -30 -11 -38 8 -8 1 -38 -23 -105 -41 -115
-43 -146 -9 -168 18 -12 25 -25 25 -47 0 -47 46 -122 91 -150 77 -47 73 -39
73 -130 0 -46 -6 -110 -14 -142 -11 -44 -12 -60 -3 -65 9 -5 3 -16 -17 -36
-16 -15 -35 -45 -41 -67 -11 -34 -10 -42 6 -59 15 -17 31 -20 104 -20 84 0
104 4 186 33 35 13 40 19 43 49 1 18 7 42 12 53 5 11 16 58 25 104 8 47 16 86
18 87 1 1 29 3 62 5 l60 4 3 -75 c2 -41 7 -79 12 -84 6 -6 10 -31 10 -57 0
-55 6 -59 94 -59 40 0 75 -6 97 -18 26 -13 57 -17 136 -16 56 1 109 4 117 7
12 5 16 21 16 62 0 46 -3 55 -17 55 -15 0 -16 2 -3 10 12 8 10 10 -9 10 -26 0
-81 45 -81 66 0 6 -11 31 -24 55 -25 44 -25 44 -8 101 l17 57 47 -6 c41 -5 49
-2 74 22 l27 27 -7 108 c-9 136 -5 152 43 173 21 10 43 17 50 17 18 0 101 93
101 113 0 11 -6 31 -14 45 -8 15 -29 57 -47 94 -29 61 -91 141 -73 95 3 -10 1
-17 -5 -17 -10 0 -13 5 -15 32 -1 7 -11 22 -23 35 -13 12 -23 29 -23 38 0 8
-6 15 -14 15 -17 0 -10 -38 11 -59 8 -8 21 -25 30 -38 15 -22 14 -25 -3 -39
-18 -15 -18 -15 6 -10 19 4 29 0 38 -15 11 -18 9 -24 -15 -47 -15 -15 -33 -36
-40 -47 -11 -19 -12 -18 -12 7 -1 15 -5 29 -10 32 -5 3 -11 14 -14 25 -3 14
-1 18 9 14 8 -3 14 0 14 6 0 6 -6 11 -13 11 -15 0 -50 131 -41 155 3 8 15 15
25 15 10 0 19 2 19 4 0 5 -38 92 -65 151 -13 28 -26 71 -30 96 -13 100 -85
172 -253 256 -2 1 2 11 8 23 15 27 7 36 -13 15 -9 -8 -14 -22 -11 -30 4 -10 0
-15 -11 -15 -9 0 -14 -4 -11 -9 7 -10 -44 -34 -53 -25 -3 4 0 9 7 11 14 5 17
53 2 53 -5 0 -16 16 -24 35 -8 19 -21 35 -28 35 -11 0 -11 -2 0 -9 7 -4 12
-12 11 -17 -2 -5 6 -26 16 -47 18 -36 18 -37 -1 -52 -40 -31 -122 -8 -108 30
5 13 3 16 -7 13 -8 -2 -15 -14 -17 -26 -5 -31 57 -55 123 -48 l50 6 -25 -20
c-37 -29 -84 -25 -154 14 -91 51 -106 69 -106 122 0 25 9 64 19 87 10 23 24
68 31 99 11 54 13 58 46 64 19 3 47 1 62 -4 15 -6 44 -14 65 -17 101 -14 107
-16 107 -32 0 -13 -3 -14 -11 -6 -8 8 -24 8 -58 -3 -51 -15 -68 -17 -58 -7 4
4 -5 12 -20 20 -16 7 -37 19 -49 28 -19 14 -22 14 -39 -5 -17 -19 -17 -20 9
-29 14 -6 26 -15 26 -21 0 -6 6 -10 14 -8 8 2 16 -1 18 -7 2 -5 -9 -11 -24
-13 -23 -3 -28 1 -28 18 0 19 -2 20 -15 6 -21 -21 -20 -24 25 -37 39 -12 54
-29 25 -29 -8 0 -25 -12 -39 -27 -21 -22 -27 -24 -40 -14 -13 11 -17 10 -22
-4 -10 -25 9 -49 41 -53 34 -4 119 20 103 29 -6 4 -1 10 13 14 17 6 27 2 38
-12 45 -55 124 -59 120 -6 -5 69 0 83 29 84 39 1 127 35 125 47 -2 6 4 9 11 6
16 -6 40 31 33 50 -3 7 -40 19 -84 26 -118 20 -123 23 -123 69 0 22 -5 63 -11
91 -10 45 -15 53 -52 72 -58 29 -157 34 -222 11z m215 -23 c22 -11 40 -26 40
-32 0 -6 -8 -4 -18 5 -27 24 -35 21 -27 -10 10 -42 24 -51 41 -29 13 18 14 17
14 -23 0 -38 -2 -41 -15 -27 -8 8 -24 18 -35 21 -11 3 -23 18 -26 33 -3 15
-10 39 -14 55 -11 32 -10 32 40 7z m-97 -18 c5 -2 -4 -13 -20 -24 -27 -19 -27
-19 -3 -13 14 4 33 14 43 23 21 18 24 16 31 -23 3 -16 10 -31 16 -33 5 -2 10
-8 10 -13 0 -6 -20 -7 -47 -4 -27 3 -75 7 -108 9 -33 2 -59 7 -57 10 1 3 2 15
2 26 0 33 94 63 133 42z m110 -117 c37 -13 47 -21 46 -38 -1 -17 -2 -18 -6 -5
-4 14 -8 15 -23 6 -14 -9 -41 -8 -120 6 -56 10 -104 16 -106 13 -3 -2 39 -12
93 -21 54 -10 134 -26 178 -36 l80 -20 -83 3 c-55 1 -86 7 -91 15 -5 8 -21 12
-42 10 -19 -3 -76 3 -127 13 -104 19 -141 38 -76 40 21 1 31 3 22 6 -11 3 -15
10 -11 20 5 14 21 15 112 10 58 -3 127 -13 154 -22z m-303 -50 c50 -6 60 -14
49 -43 -12 -33 -36 -52 -55 -45 -8 3 -27 -5 -42 -18 -19 -17 -22 -18 -11 -4
12 14 14 26 8 43 -4 12 -12 22 -16 22 -4 0 -23 9 -41 20 -45 28 -32 43 31 35
29 -4 63 -8 77 -10z m549 -60 c11 -12 -7 -11 -49 1 l-45 14 45 -6 c24 -3 46
-7 49 -9z m-99 -37 c0 -7 -18 -12 -47 -11 -6 0 -15 -11 -18 -26 -7 -24 -8 -25
-15 -6 -19 46 -13 56 35 54 25 -2 45 -6 45 -11z m-445 -30 c-4 -13 -7 -32 -6
-43 2 -50 2 -58 -3 -62 -3 -3 -12 -3 -21 0 -18 7 -21 77 -5 108 16 28 44 25
35 -3z m332 -44 l2 -67 -24 23 c-19 18 -22 26 -13 37 8 11 7 12 -6 7 -9 -4
-16 -1 -16 6 0 7 -8 19 -17 27 -17 14 -17 14 0 9 9 -3 17 -1 17 4 0 5 10 11
23 13 12 2 24 5 27 6 3 0 6 -29 7 -65z m-97 45 c0 -7 7 -17 16 -24 20 -14 11
-55 -12 -55 -42 0 -82 59 -57 83 11 12 53 8 53 -4z m-240 -165 c0 -21 -4 -33
-10 -29 -5 3 -10 19 -10 36 0 16 5 29 10 29 6 0 10 -16 10 -36z m-55 8 c12 -8
44 -75 55 -114 7 -22 5 -26 -10 -25 -10 1 -17 5 -14 9 3 4 -8 15 -23 25 -15
10 -33 25 -40 33 -10 12 -11 10 -9 -15 3 -25 7 -30 27 -27 18 2 20 1 10 -7
-11 -7 -7 -14 20 -30 19 -11 36 -16 37 -11 4 12 23 14 21 3 -4 -23 2 -43 10
-38 26 15 59 -120 67 -275 4 -66 4 -120 1 -120 -4 0 -14 26 -23 57 -9 31 -29
86 -44 122 -32 76 -47 141 -32 141 5 0 12 6 15 13 4 10 -2 13 -19 9 -13 -2
-25 -8 -25 -13 -1 -5 -2 -13 -3 -18 0 -5 -4 -13 -8 -17 -5 -4 -8 -14 -8 -23 0
-11 3 -10 14 5 13 17 14 15 14 -28 0 -27 -4 -50 -8 -53 -5 -3 -7 -12 -4 -19 6
-16 0 -21 -38 -30 -21 -5 -28 -3 -28 9 0 8 9 15 19 15 11 0 23 5 27 12 5 8 0
9 -14 6 -31 -8 -28 16 3 30 14 6 25 16 25 22 0 15 -17 12 -24 -5 -3 -8 -10
-15 -16 -15 -7 0 -7 6 -1 18 29 54 29 88 0 115 -19 17 -20 17 -28 -4 -7 -21
-9 -18 -24 23 -8 26 -14 48 -12 50 2 2 6 19 9 38 3 19 10 36 16 38 5 2 8 8 5
13 -3 5 -1 18 5 30 7 11 10 22 8 25 -9 8 -220 -35 -244 -51 -34 -22 -42 -13
-10 13 27 21 236 59 256 47 6 -3 13 1 16 9 7 18 14 19 29 8z m-91 -94 c-8 -15
-14 -30 -14 -33 2 -56 -2 -75 -15 -75 -8 0 -15 6 -15 13 0 6 -13 38 -30 70
l-29 58 59 -2 59 -2 -15 -29z m-105 -8 l16 -25 -32 23 c-36 26 -41 35 -17 30
9 -2 24 -14 33 -28z m312 -6 c30 -20 64 -40 77 -45 l23 -9 -21 -30 c-29 -41
-34 -42 -57 -17 -20 23 -86 137 -79 137 2 0 28 -16 57 -36z m378 -66 c-20 -17
-20 -17 17 -33 20 -8 40 -15 44 -15 14 0 37 -36 49 -80 8 -25 14 -85 14 -135
0 -51 2 -67 4 -37 2 28 8 52 12 52 4 0 18 -37 31 -82 70 -252 83 -299 95 -363
15 -76 19 -164 9 -214 -12 -59 -19 -31 -20 80 -1 73 -5 114 -14 122 -9 10 -11
3 -6 -30 3 -24 8 -62 11 -85 l5 -43 -15 45 c-24 73 -66 228 -85 320 -28 129
-78 260 -146 380 -20 36 -50 90 -66 120 l-29 55 22 18 c21 17 22 16 55 -20 33
-38 33 -38 13 -55z m-699 32 c49 -49 55 -83 12 -71 -16 5 -43 16 -61 25 -18
10 -39 15 -46 12 -8 -3 -19 2 -26 10 -10 12 -8 17 7 29 13 10 15 14 5 15 -7 0
-29 -17 -47 -37 -19 -20 -34 -31 -34 -24 0 7 15 28 34 47 28 28 42 34 75 34
35 0 47 -6 81 -40z m741 4 c44 -32 62 -55 42 -54 -10 1 -107 90 -98 90 4 0 29
-16 56 -36z m-146 -25 c4 -27 4 -53 1 -56 -3 -4 -19 6 -35 21 -16 16 -34 25
-40 22 -6 -4 -11 -5 -11 -2 0 7 64 66 72 66 3 0 9 -23 13 -51z m-749 -45 c-21
-8 -46 -20 -54 -26 -13 -11 -14 -10 -4 9 14 25 27 31 67 32 29 0 29 -1 -9 -15z
m664 -4 c0 -11 -7 -20 -15 -20 -8 0 -15 2 -15 4 0 2 -3 11 -6 20 -4 12 0 16
15 16 14 0 21 -6 21 -20z m320 -26 c0 -6 7 -17 15 -24 8 -7 15 -20 15 -29 0
-14 -2 -14 -10 -1 -8 12 -10 10 -10 -9 0 -13 -2 -22 -5 -19 -5 5 -35 112 -35
125 0 12 29 -32 30 -43z m-377 3 c16 -25 30 -77 21 -77 -3 0 -26 16 -50 36
-42 35 -43 38 -28 55 19 21 37 16 57 -14z m110 13 c9 -13 20 -18 31 -14 13 5
16 -1 16 -42 l0 -48 -34 37 c-18 20 -39 37 -45 37 -12 0 -15 32 -4 43 11 12
21 8 36 -13z m-609 4 c13 -5 12 -10 -9 -26 -48 -37 -98 -163 -73 -180 11 -8
11 -10 0 -15 -10 -4 -10 -8 -1 -19 9 -11 7 -15 -6 -21 -25 -9 -45 22 -47 71
-2 58 -3 64 -9 71 -9 9 -21 -44 -13 -57 4 -6 1 -9 -7 -6 -18 6 -33 89 -24 126
4 15 9 22 12 15 3 -8 16 -4 39 12 22 15 49 24 70 23 19 -1 37 2 41 5 8 8 8 8
27 1z m162 -13 c-3 -5 10 -23 29 -40 35 -30 44 -54 25 -66 -5 -3 -10 0 -10 7
0 9 -3 9 -10 -2 -8 -12 -15 -9 -44 19 -56 54 -52 30 4 -28 27 -29 50 -54 50
-57 0 -10 -43 -3 -71 12 -17 8 -33 13 -37 10 -3 -4 18 -16 46 -28 29 -12 52
-28 52 -35 0 -17 -12 -16 -55 1 -19 8 -35 11 -35 7 0 -22 87 -40 128 -27 25 8
31 -8 6 -18 -9 -3 -39 -9 -68 -12 -49 -6 -54 -4 -74 21 -26 33 -29 94 -8 172
18 67 22 73 52 73 14 0 23 -4 20 -9z m545 -32 c11 -23 16 -38 10 -34 -6 3 -11
2 -11 -3 0 -6 6 -12 13 -15 19 -7 96 -167 94 -194 0 -12 6 -36 15 -55 24 -48
31 -70 31 -95 0 -12 4 -20 8 -17 5 3 9 -4 9 -15 0 -12 -6 -21 -12 -21 -7 0 -3
-7 9 -15 14 -10 20 -22 16 -31 -3 -9 -1 -19 5 -23 6 -3 13 -18 16 -31 3 -14
21 -83 40 -154 42 -155 23 -152 -23 4 -32 107 -50 134 -97 146 -38 10 -74 -4
-92 -35 -15 -26 -22 -29 -82 -33 -41 -2 -82 -12 -113 -27 l-48 -23 -21 27
c-20 26 -25 27 -76 21 -68 -8 -86 -18 -102 -56 -7 -16 -16 -30 -20 -30 -10 0
-50 94 -50 119 0 32 -30 41 -111 33 -96 -9 -102 -17 -160 -219 -13 -44 -28
-53 -48 -29 -9 11 -8 14 6 12 13 -1 20 10 26 39 5 22 19 67 30 100 12 33 20
69 19 80 -2 11 3 28 11 39 12 17 19 17 66 7 76 -16 85 -12 16 9 -35 10 -59 22
-57 29 2 8 -5 10 -19 6 -18 -6 -19 -5 -10 13 9 17 18 20 47 15 29 -5 36 -3 32
8 -3 8 -10 14 -17 14 -16 0 -32 27 -26 46 3 9 -4 26 -15 39 -11 13 -20 26 -20
30 0 12 28 20 67 20 26 0 40 7 55 25 11 14 23 23 27 20 5 -2 32 4 62 14 56 20
79 45 79 89 0 66 36 -12 84 -185 31 -110 31 -110 7 -201 -11 -41 -14 -72 -9
-72 5 0 12 9 15 20 3 11 10 20 15 20 5 0 6 -6 2 -12 -5 -10 -4 -10 5 -2 10 9
10 17 2 32 -12 23 -4 83 13 95 8 5 7 9 -2 15 -10 7 -10 29 -2 107 12 111 5
251 -16 310 -16 47 -11 56 16 29 10 -10 57 -46 104 -79 69 -48 85 -64 81 -81
-2 -11 7 -63 22 -115 14 -52 28 -109 31 -126 2 -18 9 -33 14 -33 6 0 8 -9 5
-20 -3 -11 -2 -20 3 -20 4 0 13 -28 20 -62 7 -35 15 -57 18 -49 5 15 -21 137
-49 225 -23 71 -22 66 -5 66 17 0 29 27 15 36 -5 3 -16 3 -24 1 -7 -3 -16 1
-19 9 -10 25 -7 34 10 34 9 0 14 7 12 18 -2 9 -11 16 -21 16 -24 -2 -21 16 14
82 24 47 29 65 24 96 -9 51 9 49 36 -3z m-621 17 c0 -2 -12 -29 -26 -61 -33
-72 -30 -138 10 -171 l25 -22 -25 -17 c-32 -21 -67 -13 -101 21 -24 24 -25 31
-19 85 11 108 48 169 103 169 18 0 33 -2 33 -4z m502 -55 c5 11 9 11 24 -4 14
-13 16 -21 8 -34 -18 -28 -33 -26 -54 9 -26 43 -27 72 -1 39 14 -18 20 -20 23
-10z m333 -86 c9 -30 15 -65 13 -77 -3 -18 -6 -15 -15 17 -17 57 -26 115 -19
115 3 0 13 -25 21 -55z m-1075 -100 c14 -17 13 -17 -7 -6 -27 14 -43 42 -42
73 0 19 3 17 18 -13 9 -20 23 -45 31 -54z m10 61 c0 -8 3 -23 7 -33 6 -16 5
-16 -10 -4 -18 15 -23 51 -7 51 6 0 10 -6 10 -14z m158 -121 c3 -3 3 -8 -1
-11 -9 -9 -78 16 -72 26 5 8 62 -3 73 -15z m-23 -70 c14 -25 24 -53 22 -63 -2
-11 -13 3 -30 41 -15 32 -27 60 -27 62 0 13 11 1 35 -40z m1140 -115 c18 -34
19 -44 5 -35 -16 10 -42 65 -31 65 6 0 17 -13 26 -30z m42 -76 c2 -7 -9 -15
-24 -18 -15 -4 -45 -21 -66 -38 -21 -16 -40 -28 -43 -25 -10 10 11 39 50 67
41 29 76 35 83 14z m22 -61 c9 -19 9 -29 2 -31 -6 -2 -11 -10 -11 -18 0 -10 5
-12 13 -8 8 5 8 3 -2 -9 -7 -9 -17 -15 -21 -12 -5 3 -10 0 -12 -7 -3 -9 -12
-8 -32 5 -30 20 -27 38 6 29 14 -3 19 -2 14 6 -4 7 -14 12 -22 12 -20 0 -15
42 6 52 30 13 47 8 59 -19z m-983 -61 c19 -42 33 -85 30 -94 -2 -10 1 -21 8
-26 7 -4 18 -16 24 -27 10 -19 11 -18 22 9 6 16 9 35 6 41 -2 6 6 31 18 56 19
38 28 45 62 50 51 9 67 -1 95 -58 20 -39 25 -44 27 -26 5 34 56 70 117 83 64
13 91 7 100 -21 9 -26 -3 -106 -16 -114 -10 -7 -3 -25 10 -25 12 0 30 79 29
125 0 23 7 55 16 73 13 26 22 32 49 32 17 0 38 -4 45 -9 7 -4 29 -61 48 -127
20 -65 39 -121 43 -124 18 -11 42 -74 48 -120 5 -47 5 -49 -23 -56 -22 -6 -42
0 -86 24 -70 38 -79 32 -98 -58 -10 -46 -10 -64 -1 -73 24 -24 10 -32 -54 -32
-40 0 -65 4 -65 11 0 6 -8 18 -18 27 -15 13 -21 14 -31 4 -11 -10 -12 -4 -7
31 4 24 7 48 9 54 1 6 -3 12 -9 15 -7 2 -14 -15 -19 -43 -3 -26 -9 -53 -12
-60 -9 -23 -26 -16 -20 9 18 79 19 87 3 87 -24 0 -39 -36 -24 -60 11 -17 10
-22 -7 -34 -23 -17 -113 -19 -133 -3 -9 7 -16 7 -24 -1 -18 -18 -55 -14 -63 6
-6 15 -8 14 -17 -8 -10 -24 -10 -24 -28 20 -16 40 -18 42 -25 21 -4 -12 -4
-32 -1 -44 4 -20 1 -22 -34 -24 -42 -3 -49 3 -27 21 8 6 19 36 26 65 10 49 10
56 -6 65 -16 9 -16 10 2 17 29 11 65 11 65 -1 0 -5 -8 -10 -17 -10 -11 0 -14
-3 -8 -8 6 -4 17 -27 24 -52 13 -42 14 -43 22 -20 4 14 10 37 13 51 5 22 11
27 33 26 16 -1 34 -10 41 -19 17 -24 32 -23 32 2 0 11 5 20 11 20 11 0 8 -42
-7 -97 -5 -17 -2 -23 9 -23 11 0 19 17 28 60 11 55 29 82 29 43 0 -14 2 -15
18 -1 20 18 142 22 142 6 0 -6 7 -5 15 2 18 15 21 13 30 -22 5 -19 1 -32 -14
-47 l-20 -20 27 -19 c15 -11 41 -21 57 -24 29 -4 30 -2 30 34 0 38 0 38 -17
16 -21 -29 -30 -20 -32 34 -1 24 -6 51 -11 62 -6 14 -5 18 6 14 8 -3 19 -22
25 -44 l11 -39 22 43 c12 23 26 42 32 42 6 0 9 17 7 42 -2 34 1 43 15 46 12 3
17 -3 17 -20 0 -32 8 -41 61 -72 46 -26 79 -27 79 -1 0 22 -29 95 -44 110 -8
8 -24 47 -36 87 -47 159 -50 166 -73 172 -26 6 -40 -7 -56 -53 -9 -28 -9 -32
5 -27 12 5 14 1 9 -15 -48 -149 -66 -183 -77 -141 -3 11 -25 30 -49 43 -28 16
-44 31 -44 43 0 28 23 31 27 4 2 -17 10 -23 28 -23 20 0 26 7 33 38 13 53 4
67 -40 67 -53 -1 -121 -33 -133 -65 -12 -32 5 -72 34 -81 28 -9 76 -43 76 -55
0 -16 -26 -10 -45 11 -12 13 -31 20 -55 20 -33 0 -38 3 -43 29 -3 15 -18 54
-33 85 -24 52 -29 56 -60 56 -28 0 -38 -6 -54 -32 -11 -18 -16 -34 -11 -36 5
-2 -1 -27 -13 -55 -13 -29 -26 -60 -29 -71 -6 -15 -10 -16 -22 -6 -9 7 -14 18
-13 24 1 6 -2 21 -6 34 -9 26 -51 30 -82 8 -19 -14 -19 -15 4 -46 13 -17 22
-34 19 -36 -7 -7 -80 31 -95 48 -8 11 -5 27 15 68 25 51 27 53 31 28 3 -23 8
-28 31 -28 51 0 55 20 19 96 l-33 69 -46 -3 c-46 -3 -47 -4 -69 -53 -24 -58
-21 -76 6 -30 22 37 65 57 91 42 10 -6 15 -11 10 -11 -4 0 0 -11 9 -25 17 -25
14 -29 -20 -25 -10 1 -29 -9 -42 -21 l-25 -23 4 38 c3 20 1 34 -4 29 -25 -25
-79 -131 -79 -154 0 -41 41 -82 118 -118 73 -33 122 -72 72 -56 -57 18 -159
76 -184 105 -28 34 -35 94 -15 132 6 11 12 34 14 51 1 18 14 58 28 89 l25 56
62 1 61 0 35 -77z m884 2 c-6 -51 -23 -80 -41 -68 -4 2 -7 23 -7 46 0 30 6 47
22 60 11 9 23 17 27 18 3 0 2 -25 -1 -56z m-1165 -24 c-9 -28 -19 -50 -21 -48
-2 2 4 27 13 56 9 28 19 50 21 47 2 -2 -4 -27 -13 -55z m910 -20 c9 -27 14
-54 10 -60 -3 -5 -1 -10 4 -10 6 0 10 -3 9 -7 -2 -12 10 -44 42 -105 17 -31
27 -59 22 -62 -19 -11 -89 75 -83 103 2 9 -3 12 -14 7 -9 -3 -22 -6 -28 -6 -7
0 -13 -11 -13 -25 -1 -13 -12 -40 -24 -60 l-22 -36 -35 21 c-19 11 -45 20 -59
20 -29 0 -30 10 -5 41 16 21 22 22 45 11 32 -14 61 -3 95 40 20 25 23 40 23
104 1 41 4 74 8 74 5 0 16 -22 25 -50z m-420 -90 c0 -63 -7 -80 -32 -80 -16 0
-16 23 0 86 13 48 12 51 -5 46 -14 -3 -17 0 -12 12 3 9 10 13 15 10 5 -3 9 0
9 6 0 8 4 7 13 -2 7 -8 12 -40 12 -78z m-335 -75 c17 -21 40 -33 73 -39 20 -3
32 2 47 21 l20 26 23 -21 c29 -27 43 -28 59 -2 17 27 42 25 61 -4 20 -30 14
-36 -40 -36 -24 0 -51 -4 -61 -9 -62 -31 -85 -32 -137 -5 -55 29 -105 71 -105
89 0 7 8 27 17 46 l18 34 5 -42 c4 -23 12 -49 20 -58z m405 9 c29 -19 32 -30
8 -30 -10 0 -33 -4 -52 -8 l-34 -8 24 30 c13 17 25 31 27 31 1 1 14 -6 27 -15z
m62 -29 c-4 -8 7 -25 26 -41 26 -22 38 -25 74 -21 30 3 43 1 40 -7 -5 -15 -82
-20 -108 -6 -15 9 -24 9 -32 1 -16 -16 -54 -13 -61 4 -4 13 -10 13 -47 0 -23
-8 -65 -15 -93 -15 -29 0 -58 -6 -65 -12 -10 -11 -12 -9 -9 7 2 16 12 21 43
22 53 4 145 24 151 35 9 14 34 9 34 -6 0 -24 21 -30 38 -12 16 16 16 18 0 30
-22 16 -23 36 -2 36 10 0 14 -6 11 -15z m-377 -176 c0 -9 -9 -28 -21 -43 -11
-14 -19 -34 -17 -44 4 -19 53 -22 168 -8 36 4 74 6 85 5 32 -3 105 -1 174 5
57 5 66 3 78 -14 12 -17 26 -20 94 -20 46 0 79 -4 79 -10 0 -5 -21 -10 -47
-11 -35 0 -42 -3 -28 -8 11 -5 23 -7 28 -4 20 12 3 -28 -20 -47 -22 -16 -23
-19 -5 -10 12 6 22 8 22 5 0 -3 10 1 22 9 30 21 33 20 46 -9 11 -24 9 -26 -63
-62 -41 -20 -73 -38 -72 -40 6 -5 97 28 103 38 9 15 67 11 61 -4 -3 -8 3 -20
13 -27 11 -8 16 -18 13 -24 -4 -6 1 -5 10 2 12 10 23 11 44 4 26 -10 26 -10 5
-11 -28 -1 -19 -21 9 -21 22 0 25 -18 7 -43 -18 -25 -106 -33 -174 -17 -30 7
-54 17 -54 22 0 4 -17 8 -37 8 -21 0 -48 3 -61 6 -27 8 -53 62 -51 108 0 17
-4 50 -10 74 -6 24 -8 48 -5 54 4 6 0 14 -7 19 -19 12 -196 11 -204 -1 -3 -6
1 -7 9 -4 21 8 20 -5 0 -27 -9 -10 -16 -30 -16 -44 0 -14 -4 -25 -9 -25 -5 0
-9 -9 -9 -19 0 -11 -5 -21 -11 -23 -9 -3 -8 -10 1 -28 l13 -23 13 29 14 29 -6
-35 c-4 -19 -8 -37 -10 -39 -1 -2 -27 10 -56 27 -59 34 -81 39 -119 28 -15 -4
-38 -6 -50 -4 l-24 3 30 29 c18 18 23 27 13 23 -19 -7 -22 3 -12 40 4 13 10
21 14 18 4 -3 12 1 18 8 8 9 3 18 -19 32 -25 17 -29 25 -24 49 3 16 13 38 22
48 9 10 14 20 12 22 -2 1 -34 19 -70 40 -106 58 -108 76 -4 26 62 -29 95 -51
95 -61z m715 30 c28 -16 50 -20 79 -16 l41 6 -28 -15 c-30 -16 -71 -12 -119
12 -20 11 -27 11 -31 1 -2 -7 2 -18 9 -25 8 -7 14 -9 14 -5 0 4 5 2 11 -4 7
-7 6 -27 -6 -67 -9 -31 -19 -56 -22 -56 -6 0 2 65 12 95 6 19 6 19 -8 3 -27
-33 -40 -22 -33 28 10 73 17 77 81 43z m-18 -229 c20 -38 20 -48 -2 -32 -13 9
-35 49 -35 62 0 21 16 8 37 -30z m-639 -96 c20 -8 39 -14 42 -13 8 3 30 -45
30 -67 0 -34 -76 -59 -175 -59 -57 0 -60 1 -63 25 -2 15 6 34 18 47 11 13 24
34 30 47 6 16 19 26 37 29 15 2 32 5 36 6 4 0 24 -6 45 -15z"/>
<path d="M1190 2445 c0 -10 94 -75 99 -68 3 5 13 8 21 8 9 0 16 11 18 28 2 17
-1 27 -10 27 -22 0 -41 -17 -34 -29 12 -19 -14 -12 -48 14 -31 24 -46 30 -46
20z"/>
<path d="M1808 2373 c14 -5 17 -33 3 -33 -5 0 -12 6 -14 13 -3 6 -6 2 -6 -10
-1 -21 32 -53 54 -53 6 0 11 9 12 20 1 12 -4 20 -13 20 -8 0 -12 5 -9 10 8 13
-13 40 -29 39 -7 0 -6 -2 2 -6z"/>
<path d="M1934 1982 c2 -24 7 -46 10 -49 12 -12 12 3 -1 47 l-13 45 4 -43z"/>
<path d="M1701 2151 c-10 -7 -11 -13 -2 -30 14 -24 31 -19 31 9 0 23 -12 31
-29 21z"/>
<path d="M1553 2117 c-41 -15 -68 -40 -38 -35 11 1 26 9 33 16 7 6 22 12 32
12 10 0 22 5 25 10 8 13 -11 12 -52 -3z"/>
<path d="M1694 2006 c-7 -19 3 -36 22 -36 10 0 14 8 12 22 -4 26 -26 36 -34
14z"/>
<path d="M1450 1976 c0 -19 7 -42 16 -51 11 -10 13 -19 6 -28 -5 -7 -6 -21 -2
-31 6 -18 7 -18 14 5 4 14 9 19 13 12 7 -18 26 -16 20 1 -4 10 1 14 14 13 14
-1 19 -7 16 -18 -3 -12 0 -16 9 -12 10 4 11 10 3 25 -8 15 -6 25 6 44 16 24
16 25 -3 15 -15 -8 -24 -6 -40 9 -15 14 -23 16 -28 8 -4 -7 -2 -14 4 -16 7 -2
20 -11 29 -20 15 -16 15 -17 -1 -20 -9 -2 -27 3 -40 11 -17 12 -22 22 -18 45
2 16 -1 33 -7 36 -7 5 -11 -5 -11 -28z"/>
<path d="M1327 1967 c-10 -26 2 -45 24 -40 11 3 22 9 25 14 3 5 -2 6 -10 3
-11 -4 -19 2 -24 17 -7 19 -10 20 -15 6z"/>
<path d="M1768 1964 c-5 -4 -8 -18 -8 -32 0 -17 -4 -23 -15 -18 -8 3 -15 2
-15 -3 0 -7 46 -21 70 -21 7 0 16 22 25 57 2 7 -1 15 -6 19 -5 3 -9 -6 -9 -20
0 -35 -28 -34 -32 0 -2 14 -6 22 -10 18z"/>
<path d="M1623 1919 c-14 -37 -10 -48 10 -28 7 8 11 24 8 37 -6 22 -7 22 -18
-9z"/>
<path d="M1342 1905 c4 -4 0 -13 -8 -20 -11 -8 -14 -19 -10 -33 8 -23 40 -30
52 -10 4 6 3 8 -2 5 -6 -3 -16 -2 -23 2 -9 6 -5 10 13 15 24 6 38 36 17 36 -5
0 -18 3 -28 7 -10 3 -15 3 -11 -2z"/>
<path d="M1333 1784 c-35 -15 -42 -31 -18 -40 19 -8 41 10 48 36 3 11 4 20 4
19 -1 0 -17 -7 -34 -15z"/>
<path d="M985 2160 c-3 -6 2 -13 12 -17 10 -3 22 -12 26 -20 11 -18 28 -17 21
1 -8 22 -52 48 -59 36z"/>
<path d="M1135 1551 c-6 -21 0 -41 13 -41 9 0 8 47 0 56 -4 3 -9 -4 -13 -15z"/>
<path d="M1352 1305 c-27 -59 1 -91 35 -39 12 19 14 30 7 42 -16 25 -30 24
-42 -3z"/>
<path d="M1476 1283 c-9 -22 -1 -26 23 -13 23 12 28 1 9 -19 -11 -11 -10 -13
5 -7 10 3 21 6 23 6 2 0 4 6 4 14 0 8 -13 19 -29 24 -24 8 -31 7 -35 -5z"/>
<path d="M1840 1562 c0 -22 5 -32 15 -32 19 0 19 19 0 44 -14 19 -15 18 -15
-12z"/>
<path d="M1248 1160 c-29 -4 -36 -8 -29 -19 8 -13 17 -13 65 -1 31 7 56 17 56
21 0 8 -25 8 -92 -1z"/>
<path d="M1265 1074 c11 -8 28 -21 38 -29 9 -8 17 -10 17 -5 0 17 -39 50 -57
50 -16 -1 -16 -2 2 -16z"/>
</g>
</svg>